<svg width="500" height="500" viewBox="0 0 500 500" fill="none" xmlns="http://www.w3.org/2000/svg">
<g clip-path="url(#clip0_4838_3344)">
<path d="M360 0H140C62.6801 0 0 62.6801 0 140V360C0 437.32 62.6801 500 140 500H360C437.32 500 500 437.32 500 360V140C500 62.6801 437.32 0 360 0Z" fill="url(#paint0_linear_4838_3344)"/>
<path d="M455.16 172.66C455.017 192.614 446.991 211.702 432.83 225.761C418.67 239.821 399.524 247.711 379.57 247.71H325.14V353.55C325.13 368.491 320.692 383.094 312.388 395.515C304.083 407.935 292.284 417.616 278.48 423.335C264.676 429.053 249.488 430.552 234.833 427.643C220.177 424.734 206.713 417.547 196.14 406.99C182.46 393.33 174.32 371.28 173.36 353.53C173.36 353.53 171.67 328.98 176.25 308.58C181.34 285.87 208.18 255 211.37 251.45C214.56 247.9 217.31 250.93 217.31 250.93L251.66 308.52C251.761 308.693 251.898 308.843 252.063 308.958C252.227 309.074 252.414 309.153 252.611 309.19C252.808 309.227 253.011 309.221 253.206 309.173C253.401 309.125 253.583 309.035 253.74 308.91L265.33 299.91C268.4 297.53 267.33 290.65 267.33 290.65L248.89 217.47C248.831 217.233 248.845 216.983 248.928 216.753C249.012 216.524 249.162 216.324 249.36 216.18C251.88 214.38 260.95 207.78 267.28 201.3C274.69 193.72 286.28 176.44 287.6 170.82C288.528 166.619 287.847 162.223 285.69 158.5C284.59 156.97 279.69 153.89 274.03 154.01C268.25 154.13 248.93 161.81 239.96 167.45C232.4 172.21 224.15 179.53 221.72 181.73C221.51 181.919 221.248 182.041 220.968 182.078C220.687 182.116 220.402 182.068 220.15 181.94L152.62 148.56C152.62 148.56 146.13 146.01 143.15 148.56C140.7 150.63 133.74 156.45 131.43 158.38C131.338 158.462 131.265 158.562 131.215 158.674C131.164 158.786 131.138 158.907 131.138 159.03C131.138 159.153 131.164 159.274 131.215 159.386C131.265 159.498 131.338 159.598 131.43 159.68L180.92 205.83C180.92 205.83 183.31 209.13 179.17 211.51C178.52 211.89 147.04 229.7 115.91 233.8C94.68 236.6 79.78 234.45 67.12 225.62C50 213.71 44.84 193 44.84 172.11C44.84 162.183 46.7955 152.352 50.5949 143.181C54.3942 134.009 59.9631 125.676 66.9833 118.656C74.0035 111.637 82.3377 106.069 91.5099 102.271C100.682 98.4729 110.513 96.5187 120.44 96.52H378.23C420.11 96.52 455.46 130.78 455.16 172.66Z" fill="white"/>
</g>
<defs>
<linearGradient id="paint0_linear_4838_3344" x1="48.49" y1="33.91" x2="451.51" y2="466.09" gradientUnits="userSpaceOnUse">
<stop stop-color="#76C893"/>
<stop offset="0.16" stop-color="#6FC49B"/>
<stop offset="0.42" stop-color="#5CB9B2"/>
<stop offset="0.74" stop-color="#3DA7D8"/>
<stop offset="1" stop-color="#1E96FC"/>
</linearGradient>
<clipPath id="clip0_4838_3344">
<rect width="500" height="500" fill="white"/>
</clipPath>
</defs>
</svg>
